<?xml version="1.0" standalone="no"?>
<!DOCTYPE svg PUBLIC "-//W3C//DTD SVG 20010904//EN"
 "http://www.w3.org/TR/2001/REC-SVG-20010904/DTD/svg10.dtd">
<svg version="1.0" xmlns="http://www.w3.org/2000/svg"
 width="500.000000pt" height="500.000000pt" viewBox="0 0 500.000000 500.000000"
 preserveAspectRatio="xMidYMid meet">

<g transform="translate(0.000000,500.000000) scale(0.100000,-0.100000)"
fill="#000000" stroke="none">
<path d="M2265 4984 c-667 -71 -1260 -385 -1679 -889 -110 -132 -145 -181
-223 -311 -132 -218 -257 -533 -303 -763 -43 -219 -52 -332 -47 -576 7 -312
36 -484 131 -760 216 -632 691 -1160 1299 -1445 336 -157 679 -232 1062 -231
284 0 512 37 780 125 390 129 721 338 1010 637 378 391 608 874 681 1433 25
186 15 533 -20 728 -144 809 -672 1491 -1417 1833 -204 94 -386 150 -618 191
-125 23 -180 27 -381 29 -129 2 -253 1 -275 -1z m-90 -1565 c30 -59 39 -69 56
-64 60 19 467 20 542 1 21 -5 27 2 57 64 26 53 39 70 54 70 67 0 419 -108 500
-153 29 -16 53 -45 94 -112 150 -249 254 -522 307 -810 18 -95 33 -505 21
-568 -5 -29 -19 -42 -103 -97 -157 -104 -390 -216 -549 -264 -24 -7 -59 36
-123 154 l-40 74 110 54 110 54 -24 18 c-23 18 -25 18 -113 -17 -373 -149
-779 -146 -1155 7 -71 29 -72 29 -96 10 l-24 -19 105 -52 c59 -29 106 -57 106
-63 0 -10 -98 -177 -124 -209 -13 -17 -17 -16 -92 9 -221 75 -578 274 -589
328 -10 55 -13 245 -4 370 14 201 58 409 128 611 31 88 162 348 219 436 48 73
53 77 123 106 125 51 189 72 309 103 162 41 153 43 195 -41z"/>
<path d="M1982 2624 c-149 -74 -187 -283 -75 -413 115 -135 309 -96 373 75 51
137 -2 283 -124 340 -66 31 -110 30 -174 -2z"/>
<path d="M2854 2626 c-97 -45 -151 -145 -141 -262 17 -219 250 -313 387 -157
123 140 70 369 -99 429 -53 19 -90 17 -147 -10z"/>
</g>
</svg>
